<svg width="217" height="90" viewBox="0 0 217 90" fill="none" xmlns="http://www.w3.org/2000/svg">
<g clip-path="url(#clip0_6245_7643)">
<path d="M113.47 72.0788C113.176 72.249 112.874 72.415 112.551 72.5852C110.633 73.5981 108.183 74.1031 105.202 74.1002C103.723 74.1073 102.258 73.8254 100.887 73.2704C99.5511 72.7311 98.3198 71.962 97.249 70.9979C96.1835 70.0409 95.3161 68.8843 94.6959 67.5934C94.0531 66.2435 93.7036 64.7728 93.6704 63.2781H121.474C121.483 60.6703 121.153 58.0724 120.491 55.5499C119.89 53.1809 118.858 50.9432 117.444 48.9494C116.041 47.0188 114.213 45.4374 112.1 44.3278C109.93 43.1646 107.33 42.5844 104.3 42.5872C101.863 42.5572 99.4474 43.0476 97.215 44.0256C95.106 44.9469 93.2042 46.2834 91.6229 47.9555C90.0416 49.6277 88.8132 51.6011 88.0109 53.7583C87.1446 56.0709 86.7118 58.5234 86.7343 60.9929C86.6992 63.6268 87.1477 66.2449 88.0577 68.7169C88.8837 70.9486 90.1598 72.9867 91.8066 74.7045C93.4545 76.3926 95.4433 77.7099 97.6405 78.5687C100.031 79.4976 102.578 79.9598 105.142 79.9305C107.151 79.9593 109.155 79.7174 111.1 79.2113C112.668 78.7978 114.19 78.2275 115.644 77.509C116.771 76.9563 117.827 76.2689 118.789 75.462C119.429 74.9173 120.036 74.3347 120.606 73.7172L120.18 73.2917C117.563 70.7255 114.44 71.683 113.47 72.0788ZM94.5214 54.5158C95.0209 53.3412 95.7435 52.2746 96.649 51.3751C97.5961 50.4378 98.7141 49.6909 99.9425 49.175C101.322 48.5965 102.805 48.3068 104.3 48.3238C107.42 48.3238 109.844 49.2828 111.572 51.2006C113.304 53.1343 114.325 55.6007 114.466 58.1927H93.6874C93.7382 56.9263 94.0209 55.6801 94.5214 54.5158Z" fill="white"/>
<path d="M157.286 53.8736C156.655 51.7648 155.612 49.802 154.218 48.0987C152.844 46.4543 151.124 45.1346 149.179 44.2345C145.733 42.7788 141.915 42.4482 138.269 43.2898C137.178 43.5559 136.123 43.9502 135.124 44.4644C134.297 44.8907 133.521 45.412 132.814 46.0177C132.276 46.4759 131.782 46.9831 131.337 47.5327V30.6506V28.4546H130.848C130.705 28.4504 130.563 28.4376 130.422 28.4163C130.251 28.3904 130.077 28.3762 129.903 28.3738C128.54 28.3336 127.202 28.7434 126.095 29.5398C125.188 30.2122 124.682 31.357 124.559 32.9741H124.533V40.5236V77.6626C126.472 78.3846 128.475 78.9176 130.516 79.2542C133.166 79.7239 135.854 79.9518 138.546 79.9351C141.287 79.9679 144.011 79.4933 146.58 78.535C148.901 77.6636 151.025 76.3368 152.826 74.6326C154.583 72.9453 155.965 70.9065 156.881 68.6491C157.861 66.2155 158.35 63.6122 158.32 60.989C158.331 58.5789 157.983 56.1806 157.286 53.8736ZM150.426 66.3383C149.858 67.8726 148.967 69.2672 147.814 70.428C146.658 71.5784 145.279 72.4806 143.763 73.0793C142.073 73.7354 140.273 74.0577 138.461 74.0283C136.925 74.0675 135.39 73.9534 133.878 73.6878C132.839 73.458 131.967 73.2623 131.261 73.041V59.0271C131.259 57.7262 131.464 56.4333 131.869 55.1971C132.254 53.993 132.886 52.8826 133.724 51.9373C134.596 50.9775 135.652 50.2044 136.831 49.6647C138.203 49.0649 139.691 48.7743 141.188 48.8136C142.79 48.7636 144.379 49.1163 145.809 49.8392C147.047 50.5015 148.121 51.4338 148.95 52.5671C149.806 53.7489 150.425 55.0858 150.771 56.5036C151.153 58.0272 151.343 59.5927 151.337 61.1635C151.353 62.9296 151.044 64.6837 150.426 66.3383Z" fill="white"/>
<path d="M195.2 67.0407V33.0892H195.174V28.5229H194.693C194.551 28.519 194.409 28.5062 194.268 28.4846C194.094 28.4588 193.919 28.4446 193.744 28.4421C192.381 28.4025 191.043 28.8123 189.936 29.6081C189.188 30.2146 188.692 31.0777 188.544 32.0296H188.391V33.0424V40.5834V45.0859C187.634 44.7823 186.549 44.3284 185.136 43.7241C183.719 43.1155 181.753 42.8134 179.225 42.8134C177.195 42.8394 175.183 43.1973 173.268 43.873C171.123 44.6096 169.142 45.7557 167.434 47.2477C165.565 48.8907 164.057 50.9034 163.004 53.1588C161.839 55.559 161.257 58.4259 161.26 61.7595C161.226 64.3198 161.623 66.8677 162.434 69.2962C163.137 71.4046 164.257 73.3498 165.728 75.0158C167.12 76.5665 168.824 77.8063 170.728 78.6543C172.685 79.5152 174.802 79.9503 176.94 79.931C178.47 79.9612 179.994 79.731 181.447 79.2501C182.627 78.8474 183.759 78.3135 184.821 77.6585C185.669 77.1436 186.446 76.5198 187.132 75.8031C187.699 75.1732 188.115 74.7065 188.378 74.403L188.421 75.2158V79.1054H188.902C189.044 79.1093 189.187 79.1235 189.327 79.148C189.499 79.1724 189.673 79.1852 189.846 79.1863C191.209 79.228 192.547 78.8197 193.655 78.0245C194.56 77.3521 195.072 76.2059 195.191 74.5859H195.221V67.0407H195.2ZM188.391 64.0277C188.373 65.1483 188.182 66.2593 187.825 67.3216C187.447 68.5053 186.856 69.61 186.081 70.5814C185.244 71.6093 184.198 72.4477 183.013 73.0411C181.6 73.7345 180.041 74.0734 178.468 74.0285C176.888 74.0687 175.319 73.7439 173.885 73.0794C172.631 72.4753 171.539 71.5793 170.702 70.4665C169.843 69.2947 169.213 67.9705 168.847 66.5641C168.436 65.019 168.233 63.4262 168.243 61.8275C168.209 59.9748 168.496 58.1302 169.094 56.3761C169.612 54.8602 170.436 53.4669 171.515 52.2822C172.538 51.188 173.777 50.3184 175.153 49.7288C176.601 49.1108 178.162 48.8007 179.736 48.8181C182.258 48.8181 184.203 49.1599 185.57 49.8437C186.551 50.2993 187.488 50.8434 188.37 51.4693L188.391 64.0277Z" fill="white"/>
<path d="M207.242 43.6484H200.425V78.8766H207.242V43.6484Z" fill="white"/>
<path d="M205.067 30.6503C203.636 30.589 202.228 31.0201 201.076 31.8716C200.041 32.6887 199.524 33.9257 199.527 35.5825C199.502 36.1235 199.588 36.6638 199.78 37.1703C199.972 37.6767 200.265 38.1386 200.642 38.5274C201.382 39.2736 202.517 39.6453 204.046 39.6424C205.387 39.6424 206.599 39.3233 207.272 38.6807C207.944 38.038 208.08 37.1231 208.08 35.957V31.0248C207.097 30.7642 206.084 30.6382 205.067 30.6503Z" fill="white"/>
<path d="M81.3684 22.9602C81.6577 22.6282 81.9726 21.4877 79.4876 18.2279C76.8238 14.7298 74.8068 12.07 67.5729 6.97601C60.7646 2.45652 51.3691 -0.258577 42.7139 0.0308061C51.0286 0.362746 63.373 9.26128 79.4237 22.424C79.8152 22.7559 80.8024 23.6113 81.3684 22.9602ZM76.0281 24.9433C61.2752 12.9765 43.1522 -0.547961 33.9014 1.16281C25.1729 3.20352 17.2778 7.8665 11.2764 14.5255C19.2038 7.45264 39.7863 17.6449 72.475 44.9065C81.0067 50.7708 82.9215 42.8298 83.2194 41.1786C84.8534 32.1055 79.1131 27.4456 76.0281 24.9433Z" fill="url(#paint0_radial_6245_7643)"/>
<path d="M10.2933 48.6787C2.36581 46.4998 -0.770287 50.3044 2.25092 58.7688C5.48063 67.8504 12.8251 75.6807 12.8251 75.6807C12.8251 75.6807 10.1912 71.8251 9.55713 70.408C4.20832 58.4667 26.578 76.1787 32.2375 80.0938C37.8969 84.009 40.4075 84.4984 46.6754 81.9706C59.8666 74.9105 15.7825 50.1852 10.2933 48.6787ZM68.5898 51.4874C64.4665 47.9638 27.8418 17.0976 11.5996 18.6041C9.21246 18.8254 7.2508 19.7872 5.92318 21.9406C1.19563 30.2263 -0.553271 39.0099 0.14884 48.2149C-0.62561 30.3412 27.2461 44.9125 53.5434 68.2164C62.5091 74.8339 68.0366 70.0548 69.7132 68.2547C74.279 63.3011 73.7982 55.9303 68.5983 51.5045L68.5898 51.4874Z" fill="url(#paint1_radial_6245_7643)"/>
</g>
<defs>
<radialGradient id="paint0_radial_6245_7643" cx="0" cy="0" r="1" gradientUnits="userSpaceOnUse" gradientTransform="translate(27.3973 13.7575) scale(59.9552 59.9611)">
<stop offset="0.08" stop-color="#5ABDC8"/>
<stop offset="1" stop-color="#0C6D8E"/>
</radialGradient>
<radialGradient id="paint1_radial_6245_7643" cx="0" cy="0" r="1" gradientUnits="userSpaceOnUse" gradientTransform="translate(15.381 29.8674) scale(58.5122 58.518)">
<stop stop-color="#459BCD"/>
<stop offset="0.12" stop-color="#388BBB"/>
<stop offset="0.35" stop-color="#15638E"/>
<stop offset="0.4" stop-color="#0D5983"/>
<stop offset="0.75" stop-color="#25408F"/>
</radialGradient>
<clipPath id="clip0_6245_7643">
<rect width="217" height="90" fill="white"/>
</clipPath>
</defs>
</svg>
